<?xml version="1.0" encoding="UTF-8"?>
<svg xmlns="http://www.w3.org/2000/svg" xmlns:xlink="http://www.w3.org/1999/xlink" width="16px" height="16px" viewBox="0 0 16 16" version="1.1">
<g id="surface1">
<rect x="0" y="0" width="16" height="16" style="fill:rgb(100%,100%,100%);fill-opacity:1;stroke:none;"/>
<path style=" stroke:none;fill-rule:nonzero;fill:rgb(0%,0%,0%);fill-opacity:1;" d="M 4.121094 15.273438 C 3.585938 15.273438 3.152344 14.839844 3.152344 14.304688 L 3.152344 1.695312 L 1.695312 1.695312 C 1.429688 1.695312 1.210938 1.480469 1.210938 1.210938 C 1.210938 0.945312 1.429688 0.726562 1.695312 0.726562 L 14.304688 0.726562 C 14.570312 0.726562 14.789062 0.945312 14.789062 1.210938 C 14.789062 1.480469 14.570312 1.695312 14.304688 1.695312 L 12.847656 1.695312 L 12.847656 14.304688 C 12.847656 14.839844 12.414062 15.273438 11.878906 15.273438 Z M 6.0625 6.546875 C 5.523438 6.546875 5.089844 6.980469 5.089844 7.515625 C 5.089844 8.050781 5.523438 8.484375 6.0625 8.484375 C 6.597656 8.484375 7.03125 8.050781 7.03125 7.515625 C 7.03125 6.980469 6.597656 6.546875 6.0625 6.546875 Z M 6.0625 6.546875 "/>
</g>
</svg>
