<?xml version="1.0" encoding="UTF-8"?>
<svg xmlns="http://www.w3.org/2000/svg" xmlns:xlink="http://www.w3.org/1999/xlink" width="16px" height="16px" viewBox="0 0 16 16" version="1.1">
<g id="surface1">
<rect x="0" y="0" width="16" height="16" style="fill:rgb(100%,100%,100%);fill-opacity:1;stroke:none;"/>
<path style=" stroke:none;fill-rule:nonzero;fill:rgb(0%,0%,0%);fill-opacity:1;" d="M 15.273438 11.878906 C 15.273438 12.414062 14.839844 12.847656 14.304688 12.847656 L 1.695312 12.847656 L 1.695312 14.304688 C 1.695312 14.570312 1.480469 14.789062 1.210938 14.789062 C 0.945312 14.789062 0.726562 14.570312 0.726562 14.304688 L 0.726562 1.695312 C 0.726562 1.429688 0.945312 1.210938 1.210938 1.210938 C 1.480469 1.210938 1.695312 1.429688 1.695312 1.695312 L 1.695312 3.152344 L 14.304688 3.152344 C 14.839844 3.152344 15.273438 3.585938 15.273438 4.121094 Z M 6.546875 9.9375 C 6.546875 10.476562 6.980469 10.910156 7.515625 10.910156 C 8.050781 10.910156 8.484375 10.476562 8.484375 9.9375 C 8.484375 9.402344 8.050781 8.96875 7.515625 8.96875 C 6.980469 8.96875 6.546875 9.402344 6.546875 9.9375 Z M 6.546875 9.9375 "/>
</g>
</svg>
