<?xml version="1.0" encoding="UTF-8"?>
<svg xmlns="http://www.w3.org/2000/svg" xmlns:xlink="http://www.w3.org/1999/xlink" width="16px" height="16px" viewBox="0 0 16 16" version="1.1">
<g id="surface1">
<rect x="0" y="0" width="16" height="16" style="fill:rgb(100%,100%,100%);fill-opacity:1;stroke:none;"/>
<path style=" stroke:none;fill-rule:nonzero;fill:rgb(0%,0%,0%);fill-opacity:1;" d="M 0.726562 4.121094 C 0.726562 3.585938 1.160156 3.152344 1.695312 3.152344 L 14.304688 3.152344 L 14.304688 1.695312 C 14.304688 1.429688 14.519531 1.210938 14.789062 1.210938 C 15.054688 1.210938 15.273438 1.429688 15.273438 1.695312 L 15.273438 14.304688 C 15.273438 14.570312 15.054688 14.789062 14.789062 14.789062 C 14.519531 14.789062 14.304688 14.570312 14.304688 14.304688 L 14.304688 12.847656 L 1.695312 12.847656 C 1.160156 12.847656 0.726562 12.414062 0.726562 11.878906 Z M 9.453125 6.0625 C 9.453125 5.523438 9.019531 5.089844 8.484375 5.089844 C 7.949219 5.089844 7.515625 5.523438 7.515625 6.0625 C 7.515625 6.597656 7.949219 7.03125 8.484375 7.03125 C 9.019531 7.03125 9.453125 6.597656 9.453125 6.0625 Z M 9.453125 6.0625 "/>
</g>
</svg>
